<?xml version="1.0" encoding="UTF-8"?>
<svg width="849px" height="392px" viewBox="0 0 849 392" version="1.1" xmlns="http://www.w3.org/2000/svg" xmlns:xlink="http://www.w3.org/1999/xlink">
    <title>Group</title>
    <g id="Site" stroke="none" stroke-width="1" fill="none" fill-rule="evenodd">
        <g id="Home-page" transform="translate(-258.000000, -2349.000000)" fill="#4B008F" fill-rule="nonzero">
            <g id="Contact-Us" transform="translate(-1.000000, 2161.000000)">
                <g id="Group" transform="translate(259.000000, 188.000000)">
                    <path d="M629.671745,392 C672.677285,392 710.82133,383.973333 744.103878,367.92 C777.386427,351.866667 803.189751,329.093333 821.51385,299.6 C839.83795,270.106667 849,235.573333 849,196 C849,156.426667 839.83795,121.893333 821.51385,92.4 C803.189751,62.9066667 777.386427,40.1333333 744.103878,24.08 C710.82133,8.02666667 672.677285,-2.27373675e-13 629.671745,-2.27373675e-13 L629.671745,-2.27373675e-13 L444,-2.27373675e-13 L444,392 L629.671745,392 Z M625.216049,303 L555,303 L555,87 L625.216049,87 C658.919753,87 685.976337,96.5625 706.385802,115.6875 C726.795267,134.8125 737,161.25 737,195 C737,228.75 726.795267,255.1875 706.385802,274.3125 C685.976337,293.4375 658.919753,303 625.216049,303 L625.216049,303 Z" id="D"></path>
                    <path d="M185.671745,392 C228.677285,392 266.82133,383.973333 300.103878,367.92 C333.386427,351.866667 359.189751,329.093333 377.51385,299.6 C395.83795,270.106667 405,235.573333 405,196 C405,156.426667 395.83795,121.893333 377.51385,92.4 C359.189751,62.9066667 333.386427,40.1333333 300.103878,24.08 C266.82133,8.02666667 228.677285,-2.27373675e-13 185.671745,-2.27373675e-13 L185.671745,-2.27373675e-13 L0,-2.27373675e-13 L0,392 L185.671745,392 Z M182.216049,303 L112,303 L112,87 L182.216049,87 C215.919753,87 242.976337,96.5625 263.385802,115.6875 C283.795267,134.8125 294,161.25 294,195 C294,228.75 283.795267,255.1875 263.385802,274.3125 C242.976337,293.4375 215.919753,303 182.216049,303 L182.216049,303 Z" id="D-Copy" transform="translate(202.500000, 196.000000) scale(-1, 1) translate(-202.500000, -196.000000) "></path>
                </g>
            </g>
        </g>
    </g>
</svg>