<?xml version="1.0" encoding="UTF-8"?>
<svg width="1366px" height="768px" viewBox="0 0 1366 768" version="1.1" xmlns="http://www.w3.org/2000/svg" xmlns:xlink="http://www.w3.org/1999/xlink">
    <title>Combined Shape</title>
    <g id="Site" stroke="none" stroke-width="1" fill="none" fill-rule="evenodd">
        <g id="Desktop" fill="#6602C0">
            <path d="M1366,0 L1366,768 L0,768 L0,0 L1366,0 Z M821.698061,272 L697,272 L697,536 L821.698061,536 C850.580794,536 876.198523,530.594286 898.551247,519.782857 C920.90397,508.971429 938.23361,493.634286 950.540166,473.771429 C962.846722,453.908571 969,430.651429 969,404 C969,377.348571 962.846722,354.091429 950.540166,334.228571 C938.23361,314.365714 920.90397,299.028571 898.551247,288.217143 C876.51335,277.557988 851.301773,272.153346 822.916515,272.003217 L821.698061,272 Z M670,272 L545.301939,272 L544.083485,272.003217 C515.698227,272.153346 490.48665,277.557988 468.448753,288.217143 C446.09603,299.028571 428.76639,314.365714 416.459834,334.228571 C404.153278,354.091429 398,377.348571 398,404 C398,430.651429 404.153278,453.908571 416.459834,473.771429 C428.76639,493.634286 446.09603,508.971429 468.448753,519.782857 C490.801477,530.594286 516.419206,536 545.301939,536 L545.301939,536 L670,536 L670,272 Z M819.067901,331 C841.660494,331 859.797325,337.419271 873.478395,350.257813 C887.159465,363.096354 894,380.84375 894,403.5 C894,426.15625 887.159465,443.903646 873.478395,456.742187 C859.797325,469.580729 841.660494,476 819.067901,476 L772,476 L772,331 L819.067901,331 Z M595,331 L595,476 L547.932099,476 C525.339506,476 507.202675,469.580729 493.521605,456.742187 C479.840535,443.903646 473,426.15625 473,403.5 C473,380.84375 479.840535,363.096354 493.521605,350.257813 C507.202675,337.419271 525.339506,331 547.932099,331 L547.932099,331 L595,331 Z" id="Combined-Shape"></path>
        </g>
    </g>
</svg>