<?xml version="1.0" encoding="UTF-8"?>
<svg width="185px" height="111px" viewBox="0 0 185 111" version="1.1" xmlns="http://www.w3.org/2000/svg" xmlns:xlink="http://www.w3.org/1999/xlink">
    <title>Icon/improve</title>
    <g id="Sandbox" stroke="none" stroke-width="1" fill="none" fill-rule="evenodd">
        <g id="Desktop" transform="translate(-164.000000, -342.000000)">
            <g id="Icon/improve" transform="translate(164.000000, 342.000000)">
                <circle id="Oval" fill-opacity="0.379343313" fill="#F08F06" cx="95" cy="62.5" r="24"></circle>
                <path d="M95,46 C99.418278,46 103,50.4771525 103,56 C103,59.7011753 101.391411,62.932718 99.0004583,64.6618466 L99.000796,67.9374057 C102.404915,68.256227 105.5895,68.9488182 108,69.9713055 C109.540719,70.6248487 110.5465,71.4946441 111.017343,72.5806918 C107.16558,77.119889 101.419133,80 95,80 C88.5827642,80 82.8378169,77.1215912 78.9858184,72.5854339 C79.489249,71.5377233 80.4938668,70.6664439 82,69.9713055 C84.4358578,68.8470634 87.6159782,68.166138 91.0000086,67.8857789 L90.9995417,64.6618466 C88.6085889,62.932718 87,59.7011753 87,56 C87,50.4771525 90.581722,46 95,46 Z" id="Combined-Shape" fill="#565656"></path>
                <rect id="Rectangle" fill="#565656" x="56" y="89" width="18" height="5"></rect>
                <rect id="Rectangle-Copy" fill="#6602C0" x="116" y="89" width="18" height="5"></rect>
                <rect id="Rectangle" stroke="#565656" stroke-width="2" x="41" y="31" width="108" height="72" rx="2"></rect>
                <line x1="29.5" y1="107.5" x2="161.5" y2="107.5" id="Line" stroke="#171717" stroke-width="2" stroke-linecap="square"></line>
                <line x1="31.5" y1="109.5" x2="159.5" y2="109.5" id="Line-Copy" stroke="#565656" stroke-width="3" stroke-linecap="square"></line>
                <path d="M14.279029,49.5444835 C13.6118005,48.8470113 11.9457622,47.4872776 10.5767232,46.5228543 C6.52036834,43.6653449 5.96829758,43.2518052 4.32133335,41.8371434 C1.28505152,39.2291243 -0.00440743403,36.6089201 0,33.0561317 C0.0021673463,31.3218018 0.128892237,30.6536186 0.64955268,29.6313202 C1.53289279,27.8969062 2.83409663,26.6081003 4.49768528,25.8198587 C5.67594675,25.261577 6.25706355,25.0135416 8.22468102,25.0033942 C10.2829498,24.9927835 10.7162397,25.2166494 11.9269873,25.837119 C13.4006745,26.5923361 14.9175137,28.2063658 15.2310656,29.3529005 L15.4247236,30.0610398 L15.9022994,29.0857688 C18.6010514,23.5745632 27.21722,23.6570181 30.2156916,29.2227476 C31.1668913,30.9883537 31.2713211,34.7583634 30.4278537,36.8819904 C29.3275828,39.6521833 27.2610095,41.7641286 22.4837966,45.0004687 C19.3508194,47.1229183 15.8050045,50.3342343 15.5581704,50.7852671 C15.2716393,51.3088362 15.5445032,50.8673164 14.279029,49.5444835 Z" id="path2417" fill-opacity="0.425808566" fill="#6602C0" fill-rule="nonzero"></path>
                <path d="M115.291049,18.1042976 C114.903626,17.6750839 113.936249,16.8383247 113.141323,16.2448334 C110.78602,14.4863661 110.465463,14.2318801 109.509161,13.361319 C107.746159,11.7563842 106.997441,10.1439508 107,7.95761949 C107.001258,6.89033959 107.074841,6.47914994 107.37716,5.8500432 C107.890067,4.7827115 108.645604,3.9896002 109.611559,3.50452843 C110.295711,3.16097046 110.633134,3.00833331 111.775621,3.00208874 C112.970745,2.99555907 113.222333,3.13332273 113.925347,3.51515017 C114.781037,3.97989916 115.661782,4.97314819 115.843845,5.67870802 L115.956291,6.11448602 L116.233593,5.51431924 C117.800611,2.12280811 122.803547,2.17354959 124.544595,5.59861388 C125.096905,6.68514071 125.157541,9.00514668 124.667786,10.3119941 C124.028919,12.0167282 122.828973,13.3163868 120.055108,15.3079808 C118.23596,16.6141036 116.177099,18.590298 116.033776,18.8678567 C115.867403,19.1900531 116.025841,18.9183486 115.291049,18.1042976 Z" id="path2417" stroke="#6602C0" fill-rule="nonzero"></path>
                <polygon id="Path" stroke="#F08F06" points="167.5 16 171.375 27.3333333 183 27.3333333 173.958333 34.6666667 177.1875 46 167.5 39.3333333 157.8125 46 161.041667 34.6666667 152 27.3333333 163.625 27.3333333"></polygon>
                <polygon id="Path" fill-opacity="0.525595498" fill="#F08F06" points="62 0 64.25 6.04444444 71 6.04444444 65.75 9.95555556 67.625 16 62 12.4444444 56.375 16 58.25 9.95555556 53 6.04444444 59.75 6.04444444"></polygon>
            </g>
        </g>
    </g>
</svg>