<?xml version="1.0" encoding="UTF-8"?>
<svg width="125px" height="94px" viewBox="0 0 125 94" version="1.1" xmlns="http://www.w3.org/2000/svg" xmlns:xlink="http://www.w3.org/1999/xlink">
    <title>Icon/customer</title>
    <g id="Symbols" stroke="none" stroke-width="1" fill="none" fill-rule="evenodd">
        <g id="Icon/customer" transform="translate(1.000000, 0.000000)">
            <g>
                <path d="M95.6831016,7 C103.226512,7 109.341655,13.8649672 109.341655,22.3333333 C109.341655,28.0090595 106.594708,32.9645324 102.511886,35.6156593 L102.512539,40.6828028 C108.267369,41.1861427 113.633797,42.2238152 117.724854,43.7347231 C120.41854,44.7295542 122.176945,46.0535782 123.00007,47.7067952 C116.266575,54.6157867 106.220005,59 94.9973381,59 C83.7784462,59 73.7348603,54.6187356 67.0005269,47.7141617 C67.8801988,46.1191761 69.6365805,44.7928806 72.2698223,43.7347231 C76.7316345,41.941762 82.6218021,40.889558 88.8538043,40.503268 L88.8543174,35.6156593 C84.7714951,32.9645324 82.0245487,28.0090595 82.0245487,22.3333333 C82.0245487,13.8649672 88.1396911,7 95.6831016,7 Z" id="Combined-Shape-Copy" stroke="#F08F06"></path>
                <path d="M28.6831016,7 C36.2265122,7 42.3416546,13.8649672 42.3416546,22.3333333 C42.3416546,28.0090595 39.5947082,32.9645324 35.5118859,35.6156593 L35.5125395,40.6828028 C41.267369,41.1861427 46.6337967,42.2238152 50.724854,43.7347231 C53.4185397,44.7295542 55.176945,46.0535782 56.0000698,47.7067952 C49.2665746,54.6157867 39.2200049,59 27.9973381,59 C16.7784462,59 6.73486031,54.6187356 0.000526905391,47.7141617 C0.880198843,46.1191761 2.63658052,44.7928806 5.26982228,43.7347231 C9.73163455,41.941762 15.6218021,40.889558 21.8538043,40.503268 L21.8543174,35.6156593 C17.7714951,32.9645324 15.0245487,28.0090595 15.0245487,22.3333333 C15.0245487,13.8649672 21.1396911,7 28.6831016,7 Z" id="Combined-Shape-Copy-2" stroke="#F08F06"></path>
                <path d="M62.1822303,0 C71.6084435,0 79.2498991,9.55125867 79.2498991,21.3333333 C79.2498991,29.0520449 75.9702893,35.8133204 71.0577979,39.55887 L71.0574986,45.8358757 C78.3412563,46.5561624 85.1323596,48.0373185 90.3113878,50.1924616 C93.7271742,51.6138688 95.9567744,53.5056972 97.0001885,55.8679467 C88.4618319,65.7371526 75.7243157,72 61.49573,72 C47.3563547,72 34.6894102,65.81544 26.1523837,56.0533633 L25.9995995,55.8762859 C27.1147718,53.598657 29.341596,51.7040489 32.6800722,50.1924616 C38.2415389,47.6743539 45.5533188,46.1790227 53.3064741,45.6048762 L53.3066626,39.55887 C48.3941713,35.8133204 45.1145614,29.0520449 45.1145614,21.3333333 C45.1145614,9.55125867 52.756017,0 62.1822303,0 Z" id="Combined-Shape" fill="#565656"></path>
                <ellipse id="Oval" stroke="#6602C0" fill="#FFFFFF" cx="60.5" cy="67" rx="26.5" ry="26"></ellipse>
                <path d="M58.806395,84.0966323 C57.8808845,83.1845532 55.5699281,81.40644 53.6709386,80.145271 C48.0443819,76.408528 47.2786063,75.8677453 44.9941076,74.0178029 C40.7824908,70.6073164 38.9938865,67.1808955 39,62.5349414 C39.0030063,60.2669716 39.178786,59.3931936 39.9009924,58.0563418 C41.1262706,55.7882619 42.9311663,54.1029004 45.2387247,53.0721229 C46.8730874,52.3420622 47.6791527,52.0177083 50.4084285,52.0044386 C53.2634464,51.990563 53.8644615,52.2833108 55.5438856,53.0946941 C57.5880324,54.0822857 59.6920351,56.1929399 60.126962,57.6922545 L60.3955843,58.6182828 L61.0580282,57.3429284 C64.8014584,50.1359672 76.7529181,50.2437929 80.9120884,57.5220545 C82.2314943,59.830924 82.3763486,64.7609367 81.2063777,67.5379875 C79.6801955,71.1605474 76.8136583,73.922322 70.1872017,78.1544591 C65.8414591,80.9299701 60.9230707,85.1293833 60.5806879,85.7191954 C60.1832416,86.4038628 60.5617303,85.8264907 58.806395,84.0966323 Z" id="path2417" fill="#BD93E4" fill-rule="nonzero"></path>
            </g>
        </g>
    </g>
</svg>