<?xml version="1.0" encoding="UTF-8"?>
<svg width="186px" height="84px" viewBox="0 0 186 84" version="1.1" xmlns="http://www.w3.org/2000/svg" xmlns:xlink="http://www.w3.org/1999/xlink">
    <title>Icon/efficiency</title>
    <g id="Icon/efficiency" stroke="none" stroke-width="1" fill="none" fill-rule="evenodd">
        <g>
            <path d="M97.9498681,0 L101.195251,9.92631579 C103.358839,10.5736842 105.522427,11.4368421 107.469657,12.5157895 L116.989446,7.76842105 L125.211082,15.9684211 L120.451187,25.4631579 C121.532982,27.4052632 122.398417,29.5631579 123.047493,31.7210526 L133,34.9578947 L133,46.6105263 L123.047493,49.8473684 C122.398417,52.0052632 121.532982,54.1631579 120.451187,56.1052632 L125.211082,65.6 L116.989446,73.8 L107.469657,69.0526316 C105.522427,70.1315789 103.358839,70.9947368 101.195251,71.6421053 L97.9498681,82 L86.2664908,82 L83.0211082,72.0736842 C80.8575198,71.4263158 78.6939314,70.5631579 76.7467018,69.4842105 L67.2269129,74.2315789 L59.005277,66.0315789 L63.7651715,56.5368421 C62.6833773,54.5947368 61.817942,52.4368421 61.1688654,50.2789474 L51,46.8263158 L51,35.1736842 L60.9525066,31.9368421 C61.6015831,29.7789474 62.4670185,27.6210526 63.5488127,25.6789474 L58.7889182,16.1842105 L67.0105541,7.98421053 L76.530343,12.7315789 C78.4775726,11.6526316 80.6411609,10.7894737 82.8047493,10.1421053 L86.2664908,0 L97.9498681,0 Z M92,15 C77.6405965,15 66,26.6405965 66,41 C66,55.3594035 77.6405965,67 92,67 C106.359403,67 118,55.3594035 118,41 C118,26.6405965 106.359403,15 92,15 Z" id="Solid-Gear" fill="#565656" fill-rule="nonzero"></path>
            <g id="Ei-gear-Copy" transform="translate(128.000000, 26.000000)" fill="#BD93E4" fill-rule="nonzero">
                <path d="M29,43 C21.2222222,43 15,36.7777778 15,29 C15,21.2222222 21.2222222,15 29,15 C36.7777778,15 43,21.2222222 43,29 C43,36.7777778 36.7777778,43 29,43 Z M29,16.4 C21.98,16.4 16.4,21.98 16.4,29 C16.4,36.02 21.98,41.6 29,41.6 C36.02,41.6 41.6,36.02 41.6,29 C41.6,21.98 36.02,16.4 29,16.4 Z" id="Shape"></path>
                <path d="M33.2084433,58 L24.944591,58 L22.6490765,50.9789474 C21.1187335,50.5210526 19.5883905,49.9105263 18.2110818,49.1473684 L11.4775726,52.5052632 L5.66226913,46.7052632 L9.02902375,39.9894737 C8.26385224,38.6157895 7.65171504,37.0894737 7.19261214,35.5631579 L0,33.1210526 L0,24.8789474 L7.03957784,22.5894737 C7.49868074,21.0631579 8.11081794,19.5368421 8.87598945,18.1631579 L5.50923483,11.4473684 L11.3245383,5.64736842 L18.0580475,9.00526316 C19.4353562,8.24210526 20.9656992,7.63157895 22.4960422,7.17368421 L24.944591,0 L33.2084433,0 L35.5039578,7.02105263 C37.0343008,7.47894737 38.5646438,8.08947368 39.9419525,8.85263158 L46.6754617,5.49473684 L52.4907652,11.2947368 L49.1240106,18.0105263 C49.8891821,19.3842105 50.5013193,20.9105263 50.9604222,22.4368421 L58,24.7263158 L58,32.9684211 L50.9604222,35.2578947 C50.5013193,36.7842105 49.8891821,38.3105263 49.1240106,39.6842105 L52.4907652,46.4 L46.6754617,52.2 L39.9419525,48.8421053 C38.5646438,49.6052632 37.0343008,50.2157895 35.5039578,50.6736842 L33.2084433,58 Z M26.8905308,56.5853659 L31.1094692,56.5853659 L33.3812052,49.607891 L34.1925395,49.4456241 C36.1397418,48.9588235 37.9246772,48.1474892 39.7096126,47.1738881 L40.5209469,46.6870875 L47.0116212,49.9324247 L49.9324247,47.0116212 L46.6870875,40.5209469 L47.1738881,39.7096126 C48.1474892,38.086944 48.9588235,36.1397418 49.4456241,34.1925395 L49.607891,33.3812052 L56.5853659,31.1094692 L56.5853659,26.8905308 L49.607891,24.6187948 L49.4456241,23.8074605 C48.9588235,21.8602582 48.1474892,20.0753228 47.1738881,18.2903874 L46.6870875,17.4790531 L49.9324247,10.9883788 L47.0116212,8.06757532 L40.5209469,11.3129125 L39.7096126,10.8261119 C37.9246772,9.85251076 36.1397418,9.04117647 34.1925395,8.5543759 L33.3812052,8.39210904 L31.1094692,1.41463415 L26.8905308,1.41463415 L24.6187948,8.39210904 L23.8074605,8.5543759 C21.8602582,9.04117647 20.0753228,9.85251076 18.2903874,10.8261119 L17.4790531,11.3129125 L10.9883788,8.06757532 L8.06757532,10.9883788 L11.3129125,17.4790531 L10.8261119,18.2903874 C9.85251076,19.913056 9.04117647,21.8602582 8.5543759,23.8074605 L8.39210904,24.6187948 L1.41463415,26.8905308 L1.41463415,31.1094692 L8.39210904,33.3812052 L8.5543759,34.1925395 C9.04117647,36.1397418 9.85251076,37.9246772 10.8261119,39.7096126 L11.3129125,40.5209469 L8.06757532,47.0116212 L10.9883788,49.9324247 L17.4790531,46.6870875 L18.2903874,47.1738881 C20.0753228,48.1474892 21.8602582,48.9588235 23.8074605,49.4456241 L24.6187948,49.607891 L26.8905308,56.5853659 L26.8905308,56.5853659 Z" id="Shape"></path>
            </g>
            <g id="Ei-gear-Copy-2" transform="translate(0.000000, 27.000000)" fill="#F08F06" fill-rule="nonzero">
                <path d="M28.5,41 C21,41 15,35 15,27.5 C15,20 21,14 28.5,14 C36,14 42,20 42,27.5 C42,35 36,41 28.5,41 Z M28.5,15.35 C21.7307143,15.35 16.35,20.7307143 16.35,27.5 C16.35,34.2692857 21.7307143,39.65 28.5,39.65 C35.2692857,39.65 40.65,34.2692857 40.65,27.5 C40.65,20.7307143 35.2692857,15.35 28.5,15.35 Z" id="Shape"></path>
                <path d="M32.0633245,56 L24.0844327,56 L21.8680739,49.2210526 C20.3905013,48.7789474 18.9129288,48.1894737 17.5831135,47.4526316 L11.0817942,50.6947368 L5.46701847,45.0947368 L8.7176781,38.6105263 C7.97889182,37.2842105 7.3878628,35.8105263 6.94459103,34.3368421 L0,31.9789474 L0,24.0210526 L6.79683377,21.8105263 C7.24010554,20.3368421 7.83113456,18.8631579 8.56992084,17.5368421 L5.31926121,11.0526316 L10.9340369,5.45263158 L17.4353562,8.69473684 C18.7651715,7.95789474 20.2427441,7.36842105 21.7203166,6.92631579 L24.0844327,0 L32.0633245,0 L34.2796834,6.77894737 C35.7572559,7.22105263 37.2348285,7.81052632 38.5646438,8.54736842 L45.0659631,5.30526316 L50.6807388,10.9052632 L47.4300792,17.3894737 C48.1688654,18.7157895 48.7598945,20.1894737 49.2031662,21.6631579 L56,23.8736842 L56,31.8315789 L49.2031662,34.0421053 C48.7598945,35.5157895 48.1688654,36.9894737 47.4300792,38.3157895 L50.6807388,44.8 L45.0659631,50.4 L38.5646438,47.1578947 C37.2348285,47.8947368 35.7572559,48.4842105 34.2796834,48.9263158 L32.0633245,56 Z M25.9632712,54.6341463 L30.0367288,54.6341463 L32.2301291,47.897274 L33.0134864,47.7406026 C34.8935438,47.2705882 36.6169297,46.487231 38.3403156,45.5472023 L39.1236729,45.0771879 L45.3905308,48.2106169 L48.2106169,45.3905308 L45.0771879,39.1236729 L45.5472023,38.3403156 C46.487231,36.7736011 47.2705882,34.8935438 47.7406026,33.0134864 L47.897274,32.2301291 L54.6341463,30.0367288 L54.6341463,25.9632712 L47.897274,23.7698709 L47.7406026,22.9865136 C47.2705882,21.1064562 46.487231,19.3830703 45.5472023,17.6596844 L45.0771879,16.8763271 L48.2106169,10.6094692 L45.3905308,7.78938307 L39.1236729,10.9228121 L38.3403156,10.4527977 C36.6169297,9.51276901 34.8935438,8.72941176 33.0134864,8.25939742 L32.2301291,8.10272597 L30.0367288,1.36585366 L25.9632712,1.36585366 L23.7698709,8.10272597 L22.9865136,8.25939742 C21.1064562,8.72941176 19.3830703,9.51276901 17.6596844,10.4527977 L16.8763271,10.9228121 L10.6094692,7.78938307 L7.78938307,10.6094692 L10.9228121,16.8763271 L10.4527977,17.6596844 C9.51276901,19.2263989 8.72941176,21.1064562 8.25939742,22.9865136 L8.10272597,23.7698709 L1.36585366,25.9632712 L1.36585366,30.0367288 L8.10272597,32.2301291 L8.25939742,33.0134864 C8.72941176,34.8935438 9.51276901,36.6169297 10.4527977,38.3403156 L10.9228121,39.1236729 L7.78938307,45.3905308 L10.6094692,48.2106169 L16.8763271,45.0771879 L17.6596844,45.5472023 C19.3830703,46.487231 21.1064562,47.2705882 22.9865136,47.7406026 L23.7698709,47.897274 L25.9632712,54.6341463 L25.9632712,54.6341463 Z" id="Shape"></path>
            </g>
            <path id="Line" d="M92.0415227,40.2941134 L92.3737047,40.6678181 L103.42072,53.0957102 L107.438,57.615 L105.892045,50.5111016 L105.785737,50.0225338 L106.762872,49.8099164 L106.869181,50.2984841 L108.82075,59.2673959 L109.009743,60.1359608 L108.169326,59.8464392 L99.4910734,56.8568019 L99.0183388,56.693946 L99.3440506,55.7484769 L99.8167852,55.9113328 L106.689,58.278 L102.673311,53.7600741 L91.6262953,41.3321819 L91.2941134,40.9584773 L92.0415227,40.2941134 Z" fill="#565656" fill-rule="nonzero"></path>
            <path id="Line-2" d="M92.5,21.9801356 L92.9357878,22.7548694 L97.4357878,30.7548694 L97.6809184,31.1906571 L96.8093429,31.6809184 L96.5642122,31.2451306 L93,24.908 L93,41 L92,41 L92,24.908 L88.4357878,31.2451306 L88.1906571,31.6809184 L87.3190816,31.1906571 L87.5642122,30.7548694 L92.0642122,22.7548694 L92.5,21.9801356 Z" fill="#565656" fill-rule="nonzero"></path>
            <circle id="Oval" fill="#565656" cx="92" cy="42" r="4"></circle>
        </g>
    </g>
</svg>